<svg width="17" height="17" viewBox="0 0 17 17" fill="none" xmlns="http://www.w3.org/2000/svg">
<path d="M16.4339 7.50856C16.3704 7.34489 16.2752 7.19536 16.1539 7.06856L9.48719 0.401888C9.36288 0.27757 9.21529 0.178956 9.05286 0.111675C8.89043 0.0443948 8.71634 0.00976562 8.54053 0.00976562C8.18546 0.00976562 7.84493 0.150816 7.59386 0.401888C7.46954 0.526206 7.37093 0.673793 7.30365 0.836222C7.23637 0.998652 7.20174 1.17274 7.20174 1.34855C7.20174 1.70362 7.34279 2.04415 7.59386 2.29522L11.9939 6.68189H1.87386C1.52024 6.68189 1.1811 6.82236 0.931052 7.07241C0.681003 7.32246 0.540527 7.6616 0.540527 8.01522C0.540527 8.36884 0.681003 8.70798 0.931052 8.95803C1.1811 9.20808 1.52024 9.34856 1.87386 9.34856H11.9939L7.59386 13.7352C7.46889 13.8592 7.3697 14.0066 7.30201 14.1691C7.23431 14.3316 7.19946 14.5059 7.19946 14.6819C7.19946 14.8579 7.23431 15.0322 7.30201 15.1947C7.3697 15.3571 7.46889 15.5046 7.59386 15.6286C7.71781 15.7535 7.86528 15.8527 8.02776 15.9204C8.19024 15.9881 8.36451 16.023 8.54053 16.023C8.71654 16.023 8.89082 15.9881 9.0533 15.9204C9.21578 15.8527 9.36324 15.7535 9.48719 15.6286L16.1539 8.96189C16.2752 8.83508 16.3704 8.68556 16.4339 8.52189C16.5672 8.19727 16.5672 7.83317 16.4339 7.50856Z" fill="#17C95F"/>
</svg>
