<svg width="69" height="58" viewBox="0 0 69 58" fill="none" xmlns="http://www.w3.org/2000/svg">
<g filter="url(#filter0_d_128_1005)">
<path d="M44.2483 41.8119C44.3769 41.6894 44.5055 41.5648 44.63 41.4382L44.7626 41.3036C44.8551 41.2112 44.9475 41.1168 45.0379 41.0203C45.0881 40.9701 45.1343 40.9199 45.1825 40.8697L45.4477 40.5864L45.5361 40.49L45.5723 40.4498C45.725 40.279 45.8757 40.1082 46.0243 39.9355L46.1127 39.833C46.2413 39.6803 46.3699 39.5256 46.4944 39.3709L46.5788 39.2685C46.7215 39.0917 46.8601 38.9129 46.9967 38.732C47.0268 38.6939 47.055 38.6537 47.0851 38.6135C47.2057 38.4514 47.3242 38.2887 47.4407 38.1253C47.4608 38.0952 47.4829 38.0671 47.503 38.0389C47.6336 37.8541 47.7581 37.6672 47.8827 37.4804L47.9691 37.3478C48.0836 37.173 48.1941 36.9962 48.3026 36.8194L48.3388 36.7632C48.4553 36.5623 48.5678 36.3774 48.6783 36.1826C48.7044 36.1344 48.7325 36.0881 48.7586 36.0419C48.8671 35.841 48.9756 35.6401 49.0801 35.4392C49.1645 35.2785 49.2448 35.1158 49.3232 34.955L49.3352 34.9309L49.3875 34.8164C49.4457 34.6939 49.502 34.5733 49.5582 34.4508C49.5844 34.3885 49.6105 34.3282 49.6386 34.2679C49.6848 34.1595 49.731 34.053 49.7752 33.9445C49.8033 33.8802 49.8295 33.8159 49.8556 33.7536C49.8978 33.6471 49.9379 33.5427 49.9781 33.4362L50.0505 33.2494C50.0927 33.1368 50.1328 33.0223 50.171 32.9098L50.2152 32.7873V32.7591C50.2875 32.5408 50.3545 32.3218 50.4161 32.1022C50.4302 32.058 50.4422 32.0138 50.4563 31.9696C50.5165 31.7506 50.5748 31.5336 50.6271 31.3187C50.6271 31.3086 50.6271 31.3006 50.6271 31.2905L50.6451 31.2062C50.6793 31.0555 50.7134 30.9068 50.7436 30.7601L50.7737 30.6034C50.8079 30.4307 50.838 30.2579 50.8641 30.0871C50.8651 30.0784 50.8651 30.0697 50.8641 30.061C50.8902 29.8942 50.9123 29.7275 50.9304 29.5628L50.9485 29.4121C50.9606 29.2955 50.9726 29.177 50.9826 29.0605C50.9826 29.0324 50.9826 29.0042 50.9826 28.9761C50.9826 28.948 50.9826 28.9158 50.9826 28.8857C50.9826 28.7853 50.9967 28.6848 51.0007 28.5823C51.0007 28.5261 51.0007 28.4698 51.0007 28.4136C51.0007 28.3011 51.0007 28.1886 51.0007 28.0761C51.0007 28.0419 51.0007 28.0077 51.0007 27.9716V27.9495C51.0007 27.7988 51.0007 27.6501 51.0007 27.5035C51.0017 27.4881 51.0017 27.4726 51.0007 27.4573C51.0007 27.3247 51.0007 27.1921 50.9806 27.0555C50.9816 27.0454 50.9816 27.0353 50.9806 27.0253C50.9806 26.9811 50.9806 26.9389 50.9706 26.8967L50.9465 26.6255C50.9465 26.5673 50.9324 26.511 50.9264 26.4527C50.9204 26.3945 50.9063 26.284 50.8943 26.2016C50.8943 26.1795 50.8943 26.1554 50.8943 26.1333L50.8762 26.0208C50.8641 25.9424 50.8521 25.8661 50.838 25.7877C50.8239 25.7094 50.8159 25.6672 50.8059 25.6069C50.7958 25.5467 50.7757 25.4542 50.7596 25.3779C50.7596 25.3458 50.7476 25.3136 50.7396 25.2835L50.7215 25.1991L50.6672 24.9741C50.6532 24.9138 50.6371 24.8555 50.623 24.7973C50.609 24.739 50.5808 24.6466 50.5587 24.5723C50.5587 24.5341 50.5387 24.4939 50.5266 24.4557C50.5222 24.4381 50.5168 24.4206 50.5105 24.4035C50.4864 24.3252 50.4623 24.2508 50.4382 24.1745L50.384 24.0138C50.3578 23.9334 50.3277 23.855 50.2996 23.7747C50.2835 23.7345 50.2694 23.6943 50.2554 23.6541V23.63C50.2152 23.5256 50.173 23.4291 50.1308 23.3206C50.1308 23.2965 50.1127 23.2724 50.1027 23.2503C50.0491 23.1231 49.9929 22.9985 49.9339 22.8766V22.8646L49.9219 22.8425C49.8194 22.6255 49.721 22.4105 49.5924 22.2016L46.1328 16.0117C46.2493 16.2126 46.3598 16.4356 46.4623 16.6526L46.4804 16.6868C46.5386 16.8113 46.5949 16.9339 46.6471 17.0604L46.6773 17.1308C46.7195 17.2332 46.7616 17.3317 46.8018 17.4401C46.8199 17.4884 46.838 17.5366 46.8541 17.5848C46.8842 17.6652 46.9143 17.7435 46.9404 17.8239L46.9947 17.9846L47.067 18.2136L47.1152 18.3844C47.1373 18.4587 47.1574 18.5331 47.1775 18.6074C47.1976 18.6817 47.2076 18.7259 47.2237 18.7842C47.2398 18.8425 47.2599 18.9329 47.276 19.0092C47.292 19.0856 47.3041 19.1278 47.3161 19.188C47.3282 19.2483 47.3463 19.3407 47.3603 19.4171C47.3744 19.4934 47.3844 19.5376 47.3945 19.5979C47.4045 19.6581 47.4206 19.7526 47.4327 19.8309C47.4447 19.9093 47.4508 19.9515 47.4588 20.0117C47.4668 20.072 47.4809 20.1785 47.4909 20.2629C47.501 20.3472 47.505 20.3794 47.511 20.4356L47.5351 20.7069L47.5472 20.8656C47.5472 20.9962 47.5632 21.1288 47.5673 21.2674C47.5673 21.2835 47.5673 21.2995 47.5673 21.3156C47.5673 21.4623 47.5673 21.6109 47.5673 21.7616C47.5673 21.8038 47.5673 21.846 47.5673 21.8882C47.5673 22.0007 47.5673 22.1132 47.5673 22.2257C47.5673 22.282 47.5673 22.3402 47.5673 22.3965C47.5673 22.4969 47.5612 22.5974 47.5492 22.6978C47.5492 22.7561 47.5492 22.8144 47.5351 22.8726C47.5351 22.9891 47.515 23.1077 47.501 23.2242C47.501 23.2744 47.501 23.3247 47.4849 23.3749C47.4648 23.5396 47.4427 23.7064 47.4186 23.8731V23.9013C47.3925 24.074 47.3603 24.2468 47.3282 24.4196C47.3282 24.4718 47.3081 24.5241 47.296 24.5763C47.2659 24.725 47.2338 24.8716 47.1996 25.0223C47.1996 25.0585 47.1835 25.0966 47.1735 25.1348C47.1213 25.3498 47.063 25.5668 47.0007 25.7857C46.9887 25.8299 46.9766 25.8741 46.9625 25.9183C46.8982 26.1373 46.8299 26.3563 46.7616 26.5753C46.7456 26.6255 46.7275 26.6758 46.7094 26.726C46.6712 26.8385 46.631 26.951 46.5889 27.0655L46.5165 27.2523C46.4764 27.3588 46.4362 27.4532 46.392 27.5698C46.3679 27.6341 46.3417 27.6983 46.3136 27.7707C46.2694 27.8792 46.2232 27.9857 46.177 28.0941C46.1489 28.1544 46.1228 28.2147 46.0946 28.277C46.0404 28.3995 45.9841 28.5221 45.9259 28.6426C45.9038 28.6888 45.8837 28.735 45.8596 28.7812C45.7832 28.942 45.7009 29.1047 45.6185 29.2674C45.514 29.4683 45.4055 29.6692 45.295 29.8701L45.2167 30.0108C45.1062 30.2117 44.9937 30.3985 44.8772 30.5914L44.841 30.6476C44.7325 30.8244 44.62 31.0012 44.5075 31.176C44.4773 31.2202 44.4492 31.2644 44.4211 31.3086C44.2965 31.4955 44.17 31.6823 44.0414 31.8671L43.9791 31.9535C43.8626 32.1183 43.744 32.279 43.6235 32.4417L43.5331 32.5623C43.3985 32.7411 43.2599 32.9199 43.1172 33.0967L43.0328 33.2011C42.9083 33.3558 42.7797 33.5085 42.6511 33.6612L42.5627 33.7637C42.4141 33.9364 42.2634 34.1092 42.1107 34.278C42.0685 34.3242 42.0263 34.3684 41.9861 34.4146C41.8977 34.509 41.8093 34.6155 41.7209 34.6979L41.5783 34.8486L41.301 35.1338L41.1684 35.2664C41.0439 35.391 40.9173 35.5135 40.7907 35.6361L40.7546 35.6723C40.614 35.8069 40.4733 35.9375 40.3307 36.0741L40.2443 36.1524C40.038 36.344 39.8271 36.5308 39.6114 36.7129C39.3985 36.8958 39.1795 37.0766 38.9585 37.2554L38.8661 37.3297C38.6873 37.4724 38.5064 37.615 38.3236 37.7536L38.2031 37.8461C38.0444 37.9666 37.8836 38.0851 37.7209 38.2037L37.6124 38.282C37.4417 38.4046 37.2689 38.5271 37.0941 38.6477L36.9796 38.724C36.8389 38.8204 36.6963 38.9149 36.5537 39.0093C36.4994 39.0455 36.4452 39.0816 36.3889 39.1158C36.2644 39.1981 36.1398 39.2765 36.0132 39.3549L35.8726 39.4453L35.3543 39.7587L35.3181 39.7788C34.9806 39.9797 34.637 40.1806 34.2915 40.3614L34.193 40.4136C33.8676 40.5891 33.5381 40.7578 33.2046 40.9199L33.1383 40.9541C32.7927 41.1228 32.4432 41.2855 32.0936 41.4402L32.0514 41.4583C31.7159 41.605 31.3783 41.7476 31.0469 41.8822L30.9464 41.9204C30.6189 42.049 30.2915 42.1735 29.96 42.2901L29.8575 42.3262C29.5099 42.4468 29.1604 42.5633 28.8088 42.6698L28.7666 42.6838C28.3996 42.7964 28.0306 42.9008 27.6596 42.9973L27.4969 43.0394L27.1192 43.1319C27.0529 43.1499 26.9846 43.166 26.9183 43.1801C26.7957 43.2102 26.6752 43.2363 26.5526 43.2625C26.4863 43.2765 26.422 43.2926 26.3517 43.3046C26.1809 43.3428 26.0082 43.377 25.8354 43.4091L25.7671 43.4232C25.5662 43.4593 25.3793 43.4935 25.1845 43.5236L25.0318 43.5477C24.865 43.5739 24.7003 43.6 24.5355 43.6221L24.3668 43.6442C24.1659 43.6723 23.9509 43.6964 23.744 43.7185H23.6957C23.4707 43.7406 23.2477 43.7607 23.0227 43.7768L22.8781 43.7888C22.647 43.8049 22.418 43.8169 22.1869 43.825H22.0805C21.7851 43.835 21.4898 43.8411 21.1965 43.8391H21.098C20.8047 43.8391 20.5114 43.829 20.2201 43.8149H20.1196C19.8424 43.7989 19.5651 43.7808 19.2879 43.7547H19.2236C18.9363 43.7265 18.649 43.6924 18.3637 43.6522C13.4857 42.9691 9.94581 40.6145 8.10352 37.3197L11.5631 43.5096C13.4054 46.8024 16.9453 49.159 21.8233 49.8421C22.1086 49.8823 22.3959 49.9164 22.6852 49.9445H22.7475C23.0247 49.9707 23.302 49.9887 23.5792 50.0048H23.6435H23.6797C23.971 50.0189 24.2643 50.0249 24.5576 50.0289H24.6561C24.9494 50.0289 25.2447 50.0289 25.5401 50.0149H25.6023H25.6485C25.8776 50.0149 26.1066 49.9928 26.3377 49.9767H26.4823C26.7073 49.9606 26.9303 49.9405 27.1553 49.9184H27.1915H27.2035C27.4044 49.8963 27.6174 49.8722 27.8263 49.8441L27.9951 49.822L28.4893 49.7477L28.5938 49.7336L28.644 49.7235C28.8449 49.6914 29.0338 49.6593 29.2267 49.6231L29.297 49.609L29.8133 49.5046L29.8816 49.4905L30.0082 49.4624L30.3738 49.38L30.5747 49.3318L30.9524 49.2394L31.081 49.2052H31.1132C31.4828 49.1088 31.8518 49.0043 32.2202 48.8918H32.2342L32.2643 48.8818C32.6139 48.7733 32.9635 48.6588 33.3131 48.5382L33.3573 48.5221L33.4135 48.502C33.745 48.3835 34.0725 48.261 34.4 48.1324L34.4562 48.1123L34.5004 48.0942C34.8399 47.9576 35.1775 47.817 35.5049 47.6683H35.5351H35.5471C35.8987 47.5116 36.2463 47.3509 36.5918 47.1821L36.6159 47.17L36.6581 47.1479C36.9916 46.9845 37.3211 46.8158 37.6466 46.6417L37.6988 46.6156L37.745 46.5874C38.0906 46.4006 38.4341 46.2077 38.7717 46.0088L38.7938 45.9968L38.8098 45.9867C38.9826 45.8843 39.1554 45.7858 39.3262 45.6733L39.4668 45.5829L39.8445 45.3438L39.9249 45.2916L40.0072 45.2373C40.1499 45.1429 40.2925 45.0485 40.4331 44.9521L40.5477 44.8757C40.7224 44.7552 40.8952 44.6326 41.066 44.5101L41.1022 44.486L41.1765 44.4297C41.3372 44.3132 41.4979 44.1946 41.6567 44.0741L41.7772 43.9817C41.96 43.8431 42.1408 43.7004 42.3196 43.5578L42.3558 43.5296L42.4121 43.4834C42.6331 43.3046 42.852 43.1238 43.065 42.941C43.278 42.7582 43.4889 42.5713 43.6958 42.3825L43.7481 42.3363L43.7822 42.3041C43.9249 42.1735 44.0675 42.0409 44.2061 41.9023L44.2483 41.8119Z" fill="url(#paint0_linear_128_1005)"/>
<path d="M35.8985 9.67452C25.6825 8.24006 13.4755 14.6791 8.63169 24.0553C3.78787 33.4315 8.13948 42.193 18.3555 43.6254C28.5715 45.0579 40.7785 38.6209 45.6243 29.2467C50.4701 19.8724 46.1125 11.107 35.8985 9.67452Z" fill="url(#paint1_linear_128_1005)"/>
<path d="M34.473 12.4418C25.9185 11.2364 15.6964 16.6327 11.6402 24.484C7.58391 32.3354 11.2384 39.6725 19.7828 40.8719C28.3273 42.0713 38.5594 36.677 42.6096 28.8296C46.6598 20.9823 43.0255 13.6432 34.473 12.4418Z" fill="#FFB91C"/>
<path d="M34.1029 13.1492C25.9743 12.0081 16.2606 17.1312 12.4052 24.6008C8.54987 32.0704 12.0155 39.0318 20.1421 40.1729C28.2687 41.3141 37.9844 36.191 41.8398 28.7214C45.6951 21.2517 42.2295 14.2884 34.1029 13.1492Z" fill="url(#paint2_linear_128_1005)"/>
<path d="M31.7216 18.8326L30.1144 21.8803L28.5333 24.8638L26.916 27.9135L25.6302 30.3404C26.0784 30.3516 26.5214 30.2423 26.9129 30.0239C27.3044 29.8055 27.6302 29.486 27.8562 29.0988C28.1375 28.5664 27.8964 28.0662 27.3178 27.9758L26.916 27.9135L28.5333 24.8658L28.9351 24.926C31.3459 25.2997 32.3505 27.4012 31.1872 29.6111C29.8914 32.0561 26.703 33.7257 24.0129 33.3942L22.9983 35.3048L19.6693 34.7905L20.6739 32.8819L18.2349 32.5062C16.9451 32.3053 16.4046 31.1842 17.0295 30.0029L17.61 28.906L20.9411 29.4203L20.8386 29.6212L22.2891 29.8442L23.579 27.4112L25.1862 24.3615L26.7633 21.3841C26.3146 21.374 25.8713 21.4842 25.4795 21.7033C25.0878 21.9223 24.7617 22.2422 24.5353 22.6297L24.2439 23.1782C23.9627 23.7086 24.2058 24.2108 24.7824 24.2992L25.1842 24.3615L23.5769 27.4112L23.1751 27.3489C20.7643 26.9753 19.7597 24.8738 20.925 22.6638L21.2163 22.1154C22.5121 19.6704 25.7005 17.9988 28.3926 18.3303L29.1782 16.8477L32.5092 17.362L31.7216 18.8326ZM34.7051 22.9572L35.364 21.7116C35.9909 20.5302 35.4504 19.4072 34.1586 19.2083L31.7196 18.8326L30.1124 21.8803L31.5629 22.1053L31.3821 22.4449L34.7051 22.9572Z" fill="white"/>
<path d="M25.8231 29.9621L26.9007 27.9255L27.0572 27.6325H27.0351L26.6338 27.5703L25.3496 29.9942C25.5082 30.0014 25.667 29.9906 25.8231 29.9621Z" fill="#BF7200"/>
<path d="M31.4473 18.4666L29.832 21.5163L31.4473 18.4666L31.8732 18.5329L32.5 17.3475L32.0761 17.2812L31.4473 18.4666Z" fill="#BF7200"/>
<path d="M27.6589 28.1107C27.6166 27.9796 27.5372 27.8636 27.4304 27.7767C27.3236 27.6898 27.1938 27.6358 27.0569 27.6211L26.9004 27.9141L27.3017 27.9763C27.4291 27.9945 27.551 28.0404 27.6589 28.1107Z" fill="#BF7200"/>
<path d="M31.2873 21.7444L30.2639 21.5879L30.1074 21.8808L31.1308 22.0394L31.2873 21.7444Z" fill="#BF7200"/>
<path d="M24.2769 22.2562L23.986 22.81C23.7733 23.2113 23.8616 23.5926 24.1646 23.7952C24.1105 23.5831 24.1423 23.3582 24.2529 23.1692L24.5438 22.6214C24.7303 22.3051 24.9837 22.0334 25.2863 21.8254C25.5889 21.6174 25.9334 21.4782 26.2955 21.4175L26.4962 21.0282C26.0504 21.0164 25.6095 21.124 25.2193 21.3399C24.8291 21.5558 24.5037 21.8722 24.2769 22.2562Z" fill="#BF7200"/>
<path d="M26.6367 27.5489L28.244 24.4992L28.6458 24.5615H28.6699L30.0943 21.8713L30.251 21.578L29.8271 21.5117L28.246 24.4952L26.6367 27.5489Z" fill="#BF7200"/>
<path d="M35.2019 19.6992C35.441 20.1573 35.429 20.7479 35.1075 21.3567L34.4465 22.6023L31.5415 22.1543L31.3848 22.4496L34.7158 22.9619L35.3747 21.7163C35.7886 20.9348 35.6901 20.1774 35.2019 19.6992Z" fill="#BF7200"/>
<path d="M30.9948 25.9688C31.5432 26.8507 31.5613 28.034 30.9144 29.2515C29.6206 31.6945 26.4302 33.3641 23.7401 33.0346L22.7356 34.9452L19.8305 34.4952L19.6738 34.7905L23.0028 35.3048L24.0174 33.3942C26.7075 33.7257 29.8958 32.0562 31.1916 29.6112C31.9209 28.2189 31.7924 26.8708 30.9948 25.9688Z" fill="#BF7200"/>
<path d="M20.3993 32.5162L17.9583 32.1405C17.5727 32.0913 17.2125 31.9211 16.9297 31.6543C17.0622 31.8891 17.2494 32.0886 17.4753 32.2358C17.7012 32.383 17.9592 32.4737 18.2275 32.5001L20.2366 32.8115L20.3993 32.5162Z" fill="#BF7200"/>
<path d="M24.7673 24.2891L23.3086 27.04L24.7673 24.2891Z" fill="#BF7200"/>
<path d="M20.8477 25.9375C21.2911 26.6518 22.0837 27.1655 23.1552 27.3421L23.3097 27.0471L22.9084 26.9849C22.1194 26.8899 21.3894 26.5189 20.8477 25.9375Z" fill="#BF7200"/>
</g>
<defs>
<filter id="filter0_d_128_1005" x="0.75839" y="-2.18363" width="67.9249" height="64.1305" filterUnits="userSpaceOnUse" color-interpolation-filters="sRGB">
<feFlood flood-opacity="0" result="BackgroundImageFix"/>
<feColorMatrix in="SourceAlpha" type="matrix" values="0 0 0 0 0 0 0 0 0 0 0 0 0 0 0 0 0 0 127 0" result="hardAlpha"/>
<feOffset dx="5.89395" dy="0.129667"/>
<feGaussianBlur stdDeviation="5.89395"/>
<feComposite in2="hardAlpha" operator="out"/>
<feColorMatrix type="matrix" values="0 0 0 0 0 0 0 0 0 0 0 0 0 0 0 0 0 0 0.1 0"/>
<feBlend mode="normal" in2="BackgroundImageFix" result="effect1_dropShadow_128_1005"/>
<feBlend mode="normal" in="SourceGraphic" in2="effect1_dropShadow_128_1005" result="shape"/>
</filter>
<linearGradient id="paint0_linear_128_1005" x1="9.22952" y1="50.4594" x2="50.8911" y2="24.5957" gradientUnits="userSpaceOnUse">
<stop stop-color="#FF9500"/>
<stop offset="0.29" stop-color="#CD7D29"/>
<stop offset="0.91" stop-color="#F7BB57"/>
<stop offset="1" stop-color="#FEC55E"/>
</linearGradient>
<linearGradient id="paint1_linear_128_1005" x1="4.15484" y1="42.4927" x2="41.4114" y2="16.8189" gradientUnits="userSpaceOnUse">
<stop stop-color="#F28F3B"/>
<stop offset="0.49" stop-color="#F7A74B"/>
<stop offset="1" stop-color="#FEC55E"/>
</linearGradient>
<linearGradient id="paint2_linear_128_1005" x1="27.1225" y1="12.9902" x2="27.1225" y2="40.3319" gradientUnits="userSpaceOnUse">
<stop stop-color="#FCC038"/>
<stop offset="1" stop-color="#F0A700"/>
</linearGradient>
</defs>
</svg>
